<svg width="100%" height="100%" viewBox="0 0 51 51" fill="none" xmlns="http://www.w3.org/2000/svg">
    <rect width="51" height="51" rx="8.5" fill="#00AC66"/>
    <path d="M8.59565 18.512C8.64348 18.0896 8.6674 17.5037 8.6674 16.7544C8.6674 15.3275 8.6116 13.7094 8.5 11.8999C10.0544 11.9477 12.7248 11.9716 16.5111 11.9716C20.2815 11.9716 22.9399 11.9477 24.4863 11.8999C24.3747 13.7094 24.3189 15.3275 24.3189 16.7544C24.3189 17.5037 24.3428 18.0896 24.3907 18.512H23.8287C23.2946 16.3678 22.6011 14.8253 21.7482 13.8847C20.9033 12.9362 19.9905 12.4619 19.0101 12.4619H18.9862V26.4753C18.9862 27.1608 19.0539 27.659 19.1894 27.9699C19.3329 28.2808 19.588 28.4881 19.9547 28.5917C20.3214 28.6953 20.9033 28.7471 21.7004 28.7471V29.2374C19.4047 29.1895 17.6151 29.1656 16.3317 29.1656C15.1759 29.1656 13.498 29.1895 11.2979 29.2374V28.7471C12.095 28.7471 12.6769 28.6953 13.0436 28.5917C13.4103 28.4881 13.6614 28.2808 13.7969 27.9699C13.9404 27.659 14.0121 27.1608 14.0121 26.4753V12.4619H13.9882C12.9918 12.4619 12.0711 12.9322 11.2262 13.8728C10.3892 14.8054 9.69967 16.3518 9.15763 18.512H8.59565Z" fill="white"/>
    <path d="M24.9209 26.6746C24.9687 26.2522 24.9926 25.6663 24.9926 24.917C24.9926 23.4901 24.9368 21.872 24.8252 20.0625C26.3796 20.1103 29.05 20.1342 32.8363 20.1342C36.6067 20.1342 39.2651 20.1103 40.8115 20.0625C40.6999 21.872 40.6441 23.4901 40.6441 24.917C40.6441 25.6663 40.668 26.2522 40.7159 26.6746H40.1539C39.6198 24.5304 38.9263 22.9879 38.0734 22.0473C37.2284 21.0988 36.3157 20.6245 35.3353 20.6245H35.3114V34.6379C35.3114 35.3234 35.3791 35.8216 35.5146 36.1325C35.6581 36.4434 35.9132 36.6507 36.2799 36.7543C36.6465 36.8579 37.2284 36.9097 38.0256 36.9097V37.4C35.7299 37.3521 33.9403 37.3282 32.6569 37.3282C31.5011 37.3282 29.8232 37.3521 27.6231 37.4V36.9097C28.4202 36.9097 29.0021 36.8579 29.3688 36.7543C29.7355 36.6507 29.9866 36.4434 30.1221 36.1325C30.2656 35.8216 30.3373 35.3234 30.3373 34.6379V20.6245H30.3134C29.317 20.6245 28.3963 21.0948 27.5514 22.0354C26.7144 22.968 26.0249 24.5144 25.4828 26.6746H24.9209Z" fill="white"/>
</svg>
